<svg width="108" height="32" viewBox="0 0 108 32" fill="none" xmlns="http://www.w3.org/2000/svg">
<path d="M5.53198 0.446713C3.33201 1.39667 0.913511 4.08041 0.14967 7.44909C-0.817674 11.7173 3.2079 13.5222 3.53808 12.9304C3.92669 12.2351 2.81674 11.9999 2.58827 9.78534C2.29298 6.92504 3.58202 3.72898 5.20432 2.32665C5.50588 2.06611 5.49153 2.42874 5.49153 3.09949C5.49153 4.29895 5.42729 15.0666 5.42729 17.3138C5.42729 20.3546 5.30554 21.3148 5.08687 22.2637C4.86532 23.2252 4.50914 23.8749 4.77903 24.1252C5.08058 24.4051 6.36806 23.7392 7.1134 22.6661C8.00718 21.3791 8.32004 19.8334 8.37621 18.1549C8.44405 16.1314 8.44116 12.9206 8.44405 11.0892C8.44677 9.40953 8.47148 4.49106 8.41551 1.53426C8.40179 0.809019 6.45201 0.0481324 5.53187 0.44583M83.6527 14.6773C83.5818 16.2581 83.2426 17.4938 82.8216 18.3653C82.0065 20.0526 80.3153 20.5765 79.5973 18.151C79.2059 16.8288 79.1877 14.6207 79.469 12.7757C79.7554 10.8961 80.555 9.47659 81.8792 9.6046C83.1852 9.73115 83.7965 11.4672 83.6527 14.6772V14.6773ZM61.635 24.4851C61.6173 27.1118 61.2166 29.4148 60.3572 30.0837C59.1384 31.0321 57.5002 30.3207 57.8394 28.404C58.1395 26.7079 59.559 24.9758 61.6385 22.8594C61.6385 22.8594 61.6428 23.342 61.6351 24.4851H61.635ZM61.3022 14.662C61.2276 16.1018 60.8658 17.5482 60.471 18.3655C59.6562 20.0528 57.9527 20.5803 57.2467 18.1512C56.764 16.4915 56.8796 14.3435 57.1184 12.9901C57.4283 11.2341 58.1795 9.60498 59.5286 9.60498C60.8403 9.60498 61.4871 11.0894 61.3022 14.6621V14.662ZM48.5473 14.64C48.4673 16.1649 48.1789 17.4396 47.7162 18.3655C46.8789 20.0412 45.2224 20.5726 44.4918 18.1512C43.9652 16.4052 44.1445 14.0244 44.3636 12.7383C44.6887 10.8298 45.5028 9.47677 46.7738 9.60498C48.0793 9.73655 48.7139 11.4674 48.5473 14.6401V14.64ZM107 16.4211C106.681 16.4211 106.535 16.7605 106.415 17.3317C105.997 19.3178 105.557 19.7663 104.991 19.7663C104.358 19.7663 103.79 18.7829 103.643 16.8142C103.529 15.2662 103.547 12.4162 103.694 9.58129C103.724 8.99882 103.568 8.42251 102.054 7.85497C101.402 7.61085 100.455 7.2514 99.9831 8.42587C98.6504 11.744 98.129 14.3783 98.0064 15.4484C98 15.5038 97.9342 15.5151 97.9226 15.3857C97.8444 14.5286 97.6697 12.9711 97.648 9.6987C97.6438 9.06023 97.5126 8.51676 96.8295 8.07182C96.3862 7.78312 95.0402 7.2725 94.5555 7.87997C94.1356 8.37679 93.6493 9.7138 93.144 11.2987C92.7333 12.5868 92.4473 13.4582 92.4473 13.4582C92.4473 13.4582 92.4527 9.98256 92.4576 8.66419C92.4598 8.16683 92.1291 8.0011 92.0294 7.97105C91.5805 7.83667 90.6962 7.61216 90.3208 7.61216C89.8576 7.61216 89.7442 7.87923 89.7442 8.26836C89.7442 8.3193 89.6711 12.8444 89.6711 16.0085C89.6711 16.1459 89.6711 16.2959 89.6725 16.4552C89.4163 17.9094 88.5855 19.8836 87.682 19.8836C86.7774 19.8836 86.3507 19.0582 86.3507 15.2861C86.3507 13.0855 86.4147 12.1287 86.4462 10.5371C86.4644 9.62038 86.4997 8.9164 86.4977 8.75665C86.4911 8.26675 85.6699 8.01983 85.2878 7.92858C84.9039 7.83656 84.5702 7.80091 84.3097 7.81621C83.941 7.83768 83.6801 8.08721 83.6801 8.43042C83.6801 8.61444 83.6822 8.96437 83.6822 8.96437C83.2073 8.19452 82.4434 7.6587 81.9352 7.50343C80.5664 7.08407 79.1381 7.45564 78.0607 9.01085C77.2044 10.2465 76.6883 11.6461 76.4851 13.6568C76.3366 15.1268 76.385 16.6175 76.649 17.8782C76.3301 19.3008 75.7379 19.8836 75.0895 19.8836C74.1482 19.8836 73.4658 18.2986 73.545 15.5575C73.5973 13.7545 73.947 12.4893 74.3293 10.6588C74.4923 9.87848 74.3599 9.46995 74.0277 9.0784C73.723 8.71933 73.0739 8.53587 72.1407 8.76151C71.476 8.92238 70.5257 9.09538 69.6562 9.22827C69.6562 9.22827 69.7086 9.01233 69.7517 8.63162C69.9779 6.63503 67.8747 6.79703 67.2037 7.43474C66.8031 7.81547 66.5305 8.26451 66.427 9.07187C66.2629 10.3531 67.2758 10.9574 67.2758 10.9574C66.9435 12.5268 66.1288 14.5769 65.2877 16.0591C64.8373 16.8533 64.4926 17.4417 64.0477 18.0673C64.0461 17.8343 64.0449 17.6014 64.0441 17.3696C64.0339 14.0702 64.0765 11.4734 64.0953 10.5374C64.1135 9.6207 64.1492 8.93539 64.1472 8.77563C64.1422 8.4173 63.9393 8.28199 63.5174 8.11066C63.1444 7.95913 62.7033 7.85424 62.2458 7.81766C61.6683 7.77119 61.3204 8.08716 61.3294 8.46079C61.3312 8.53133 61.3312 8.96451 61.3312 8.96451C60.8562 8.19465 60.0924 7.65884 59.5842 7.50355C58.2154 7.08438 56.787 7.45597 55.7097 9.01097C54.8536 10.2467 54.2929 11.9806 54.1341 13.6417C53.9861 15.1897 54.0134 16.5053 54.2151 17.6135C53.9975 18.7232 53.3717 19.8837 52.6641 19.8837C51.7595 19.8837 51.2448 19.0584 51.2448 15.2863C51.2448 13.0857 51.3089 12.1288 51.3403 10.5374C51.3586 9.6207 51.3939 8.91654 51.3919 8.75697C51.3853 8.26707 50.564 8.02015 50.1819 7.9287C49.7821 7.83334 49.4369 7.79825 49.1719 7.8184C48.8222 7.84528 48.5763 8.16834 48.5763 8.40928V8.96451C48.1014 8.19465 47.3375 7.65884 46.8293 7.50355C45.4605 7.08438 44.0401 7.46194 42.9548 9.01097C42.2471 10.021 41.6741 11.1408 41.3792 13.6196C41.294 14.336 41.2564 15.0068 41.2612 15.6338C40.979 17.4143 39.7325 19.4664 38.7128 19.4664C38.1162 19.4664 37.5479 18.2725 37.5479 15.7282C37.5479 12.339 37.7513 7.51345 37.7856 7.04837C37.7856 7.04837 39.0739 7.02579 39.3234 7.02279C39.966 7.01551 40.5481 7.03119 41.404 6.98603C41.8333 6.96345 42.2469 5.3741 41.8038 5.1774C41.603 5.08837 40.1837 5.01036 39.621 4.99804C39.1479 4.98698 37.8309 4.88644 37.8309 4.88644C37.8309 4.88644 37.949 1.68347 37.9765 1.34512C37.9998 1.06312 37.6461 0.917925 37.4433 0.829823C36.9502 0.614643 36.5089 0.511616 35.9859 0.400386C35.2633 0.24661 34.9355 0.397027 34.8714 1.02616C34.775 1.98097 34.725 4.77763 34.725 4.77763C34.1948 4.77763 32.3834 4.6707 31.853 4.6707C31.3602 4.6707 30.8283 6.85707 31.5096 6.88394C32.2935 6.9153 33.6596 6.94236 34.5653 6.97054C34.5653 6.97054 34.525 11.8756 34.525 13.3899C34.525 13.551 34.5263 13.7062 34.5266 13.8567C34.0282 16.5367 32.2725 17.9844 32.2725 17.9844C32.6496 16.2114 31.8794 14.88 30.4921 13.7529C29.981 13.3376 28.972 12.5513 27.8431 11.6897C27.8431 11.6897 28.497 11.0249 29.0768 9.68755C29.4877 8.74021 29.5054 7.65607 28.497 7.417C26.8307 7.02171 25.4568 8.28408 25.047 9.63175C24.7295 10.6758 24.8989 11.4505 25.5209 12.2552C25.5663 12.314 25.6155 12.3741 25.6663 12.4346C25.2902 13.1824 24.7735 14.1893 24.3359 14.9701C23.1212 17.138 22.2036 18.8528 21.5101 18.8528C20.9558 18.8528 20.9632 17.1119 20.9632 15.4819C20.9632 14.0767 21.0638 11.9641 21.1441 9.77676C21.1707 9.05338 20.8201 8.64129 20.2323 8.26804C19.8752 8.04128 19.1129 7.59542 18.6715 7.59542C18.0108 7.59542 16.1045 7.68817 14.3033 13.063C14.0763 13.7404 13.6303 14.9748 13.6303 14.9748L13.6687 8.5114C13.6687 8.35986 13.5905 8.21335 13.4113 8.11313C13.1078 7.94311 12.2971 7.59542 11.5763 7.59542C11.2328 7.59542 11.0614 7.76021 11.0614 8.08868L10.9985 18.2007C10.9985 18.969 11.018 19.8654 11.0916 20.2574C11.165 20.6499 11.2838 20.9692 11.431 21.1592C11.578 21.3488 11.7481 21.4935 12.0284 21.5532C12.2893 21.6086 13.7181 21.7978 13.7924 21.2346C13.8813 20.5596 13.8847 19.8295 14.635 17.1065C15.803 12.8672 17.3258 10.7987 18.0417 10.0642C18.1668 9.93577 18.3097 9.92811 18.3029 10.1383C18.2723 11.0677 18.1648 13.3901 18.0925 15.3632C17.8986 20.6433 18.8297 21.622 20.1604 21.622C21.1784 21.622 22.6134 20.5786 24.1518 17.9372C25.1108 16.2911 26.042 14.6771 26.711 13.5139C27.1773 13.9591 27.7005 14.4383 28.2233 14.9502C29.4384 16.1398 29.8373 17.2702 29.5726 18.3426C29.3702 19.1624 28.6078 20.0072 27.2509 19.186C26.8554 18.9465 26.6866 18.7614 26.2889 18.4913C26.0753 18.3462 25.7491 18.3028 25.5535 18.4548C25.0455 18.85 24.755 19.3526 24.5891 19.9748C24.4277 20.5802 25.0155 20.9003 25.6248 21.1802C26.1495 21.4212 27.2771 21.6395 27.9963 21.6644C30.7983 21.761 33.043 20.2687 34.6055 16.4193C34.8853 19.7438 36.0757 21.625 38.1439 21.625C39.5267 21.625 40.9131 19.7812 41.5193 17.9674C41.6934 18.7068 41.951 19.3497 42.2837 19.8934C43.8774 22.4982 46.9691 21.9376 48.5221 19.7257C49.0023 19.0422 49.0753 18.7966 49.0753 18.7966C49.3018 20.8852 50.9323 21.6149 51.8658 21.6149C52.9113 21.6149 53.9909 21.1051 54.7475 19.3479C54.8361 19.5386 54.9329 19.7207 55.0386 19.8934C56.6323 22.4982 59.724 21.9375 61.277 19.7256C61.3502 19.6219 61.4137 19.5278 61.4693 19.4433L61.5149 20.8152C61.5149 20.8152 60.6289 21.6535 60.0851 22.1679C57.6915 24.4332 55.8715 26.1519 55.7376 28.1533C55.5658 30.7053 57.5721 31.6537 59.09 31.778C60.702 31.91 62.0824 30.9914 62.9309 29.7059C63.6772 28.5744 64.1657 26.139 64.1299 23.7337C64.1156 22.7705 64.092 21.5458 64.0736 20.2331C64.9149 19.2253 65.8627 17.9515 66.7354 16.4605C67.6865 14.8357 68.7058 12.6536 69.2277 10.9555C69.2277 10.9555 70.1133 10.9633 71.0584 10.8995C71.3608 10.8791 71.4476 10.9428 71.3917 11.1714C71.3242 11.4476 70.1977 15.9301 71.2258 18.9162C71.9296 20.9604 73.516 21.618 74.4566 21.618C75.5577 21.618 76.611 20.7603 77.1755 19.4865C77.2435 19.6285 77.3146 19.766 77.3922 19.8928C78.9859 22.4976 82.0667 21.9336 83.6306 19.7251C83.9836 19.2268 84.1838 18.796 84.1838 18.796C84.5194 20.9576 86.149 21.6253 87.0823 21.6253C88.0546 21.6253 88.9772 21.2142 89.7259 19.3869C89.7572 20.1914 89.8064 20.8493 89.8842 21.0567C89.9316 21.1836 90.2079 21.3428 90.4088 21.4197C91.2982 21.7599 92.2054 21.599 92.541 21.529C92.7734 21.4805 92.9547 21.2881 92.9795 20.7913C93.0446 19.4867 93.0047 17.2949 93.388 15.666C94.0316 12.9322 94.6318 11.8718 94.9166 11.3468C95.076 11.0527 95.2558 11.0042 95.2623 11.3155C95.2758 11.9453 95.3061 13.7951 95.5554 16.2802C95.7385 18.108 95.9831 19.1883 96.1711 19.5302C96.7075 20.508 97.37 20.5543 97.9095 20.5543C98.2527 20.5543 98.9704 20.4564 98.9062 19.8342C98.8749 19.5309 98.9297 17.6566 99.5642 14.9633C99.9785 13.2045 100.669 11.6154 100.918 11.0344C101.01 10.8201 101.053 10.989 101.052 11.0219C100.999 12.2332 100.881 16.195 101.36 18.3618C102.008 21.2971 103.884 21.6255 104.537 21.6255C105.933 21.6255 107.074 20.5306 107.459 17.6494C107.551 16.956 107.414 16.4206 107.003 16.4206" fill="#262626"/>
</svg>
